<svg xmlns="http://www.w3.org/2000/svg" viewBox="0 0 500 500"><g id="freepik--Oven--inject-39"><rect x="314.61" y="43.04" width="73.34" height="215.59" style="fill:#37474f"></rect><path d="M469.27,426h-236c0-132.51,25-196.31,118-196.31S469.27,293.49,469.27,426Z" style="fill:#455a64"></path><path d="M442.14,327.87l-90.58.59L306,328.7l-45.61.1h-1.13l.22-1.12a156.44,156.44,0,0,1,9.71-32.23,81.88,81.88,0,0,1,19.14-27.7,72.56,72.56,0,0,1,29.52-16.13c10.87-3.11,22.19-4.14,33.4-4.16a120.76,120.76,0,0,1,33.34,4.35,72.28,72.28,0,0,1,29.3,16.24c8.27,7.69,14.38,17.41,18.81,27.67A153.54,153.54,0,0,1,442.14,327.87Zm0,0a158.76,158.76,0,0,0-10-31.9,82.09,82.09,0,0,0-19-27.11,71.07,71.07,0,0,0-28.95-15.69c-10.68-3-21.85-4-33-4s-22.26,1.13-32.89,4.2a70.75,70.75,0,0,0-28.72,15.8c-8.11,7.5-14.17,17-18.65,27.09a155,155,0,0,0-9.69,31.8l-.91-1.11,45.25.09,45.33.24Z" style="fill:#37474f"></path><path d="M351.29,249.31q.57,9.76.77,19.54c.16,6.52.21,13,.23,19.55s-.06,13-.22,19.54-.4,13-.78,19.55q-.59-9.78-.78-19.55c-.16-6.51-.21-13-.22-19.54s.06-13,.22-19.55S350.9,255.82,351.29,249.31Z" style="fill:#37474f"></path><rect x="334.06" y="285.44" width="6.64" height="25.02" style="fill:#37474f"></rect><rect x="361.86" y="285.44" width="6.64" height="25.02" style="fill:#37474f"></rect><rect x="304.61" y="346.94" width="93.34" height="4.88" style="fill:#37474f"></rect><rect x="304.61" y="355.15" width="93.34" height="4.88" style="fill:#37474f"></rect><rect x="304.61" y="363.35" width="93.34" height="4.88" style="fill:#37474f"></rect><rect x="304.61" y="371.55" width="93.34" height="4.88" style="fill:#37474f"></rect><rect x="304.61" y="379.76" width="93.34" height="4.88" style="fill:#37474f"></rect><rect x="304.61" y="387.96" width="93.34" height="4.88" style="fill:#37474f"></rect><path d="M364.77,379.76H349.61c-1.63,1.29-4.73,3.33-6.46,4.87h21.53c.14-.44.27-.8.36-1.05A10,10,0,0,0,364.77,379.76Zm7.78,0h-3.47c-.52,1.36-1.35,3.23-2,4.87h5A26.88,26.88,0,0,0,372.55,379.76Zm-3.67-8.21h-.69a50.23,50.23,0,0,1,1.21,4.88h2C370.7,374.84,369.71,373,368.88,371.55Zm3.69,12.57s0,.19,0,.51h.4C372.74,384.31,372.57,384.12,372.57,384.12Zm3.56,5.36a5.61,5.61,0,0,0-.7-1.52h-2.76a2.35,2.35,0,0,1-.1.79c-.28.5-1.19,1.46-1.41,1.29a9.7,9.7,0,0,1,.28-2.08h-5.27a18.78,18.78,0,0,0,.83,4.88h8.62A8.57,8.57,0,0,0,376.13,389.48Zm-49.54-9.72a5,5,0,0,0-.39,1.72c.05.72.24,1.86.48,3.15h10.17a38.15,38.15,0,0,1,1.55-4.87Zm9-8.21h-5.11c-.86,1.63-1.75,3.34-2.49,4.88h9.66C337.07,374.9,336.23,373,335.63,371.55Zm-3.39-16.4-.19-.19.07.19c.24.65,1,2.77,1.57,4.87h2.74C335,358.07,332.88,355.84,332.24,355.15Zm2.06,8.2a3,3,0,0,1-.09,1,37.8,37.8,0,0,1-1.92,3.84h2.91c.71-1.36,2.31-3.56,2.73-4.88Zm29.31,29.08c-.57-.61-.32-2.54.14-4.47H327.33a43.23,43.23,0,0,1,.82,4.88h5.25c.38-1.39.75-2.49.75-2.49a9.38,9.38,0,0,1,1.21,2.49h28.72A3.07,3.07,0,0,1,363.61,392.43Zm1.16-12.67H341l-1.32.79c-1.35.83-2.2,2.93-2.58,4.08h27.63c.14-.44.27-.8.36-1.05A10,10,0,0,0,364.77,379.76ZM351.35,358.9c-.52-.62-.49-2.3-.35-3.75h-1.09c-.81,1.38-1.83,3.18-2.68,4.87h5.43A7.62,7.62,0,0,1,351.35,358.9Zm-5.6,4.45a4.94,4.94,0,0,0-.25,1,6.78,6.78,0,0,0,.91,3.84h7c.41-1.28,2.32-3.7,2.69-4.88Zm16.87,9.2a5.31,5.31,0,0,0-2-1H346.86a37.15,37.15,0,0,1-1.8,4.88H364A16.77,16.77,0,0,0,362.62,372.55Z" style="fill:#E84242"></path><path d="M337.93,355.15c.19.71.36,1.29.38,1.38a18.84,18.84,0,0,1-1.67-1.38Z" style="fill:#E84242"></path><path d="M339.22,346.94c-.49,1.73-1.57,3.69-1.88,4.88h-3s0-.07,0-.11c-.07-1.17.7-3,1.35-4.77Z" style="fill:#E84242"></path><path d="M362.58,365.68c-.27.95-.58,1.89-.82,2.55h-.62a9.91,9.91,0,0,1-.5-2.87,4.74,4.74,0,0,1,1-2h.73A3.1,3.1,0,0,1,362.58,365.68Z" style="fill:#E84242"></path><path d="M372.2,363.35c-.21,1.46-.82,3.85-1.09,4.88h-.45a16.69,16.69,0,0,1-1.82-4.88Z" style="fill:#E84242"></path><path d="M371.46,357.13a18.22,18.22,0,0,0,.41,2.89H369a16.4,16.4,0,0,1,1.42-4,3.07,3.07,0,0,1,.77-.83h1.06A5.74,5.74,0,0,0,371.46,357.13Z" style="fill:#E84242"></path><path d="M353.54,355.15h.19l-.23.17S353.51,355.26,353.54,355.15Z" style="fill:#E84242"></path><path d="M359.65,346.94a5.56,5.56,0,0,1-.38,2.19,12.17,12.17,0,0,1-1.89,2.69H354.1a10.87,10.87,0,0,0,.16-3.28c-.38-1.35-4.43,0-5.44.82a19.78,19.78,0,0,0-2.22,2.46h-1.35a10.83,10.83,0,0,1-1.8-4.88Z" style="fill:#E84242"></path><path d="M341.83,365.81c-.28.75-.55,1.71-.73,2.42H338c.64-1.56,2.5-3.59,2.62-4.27a2.54,2.54,0,0,0,0-.61h.9A4.32,4.32,0,0,1,341.83,365.81Z" style="fill:#E84242"></path><path d="M338.69,371.55h4.16a30.09,30.09,0,0,1-2.7,3,10.92,10.92,0,0,0,0-1.39c0-.51-.36-.22-1-1A6,6,0,0,1,338.69,371.55Z" style="fill:#E84242"></path><path d="M343.51,368.23h-1.59a1,1,0,0,0,.16-.27,15.1,15.1,0,0,0,.43-1.48A7.52,7.52,0,0,1,343.51,368.23Z" style="fill:#E84242"></path><g style="opacity:0.4"><path d="M350.5,376.43a28.4,28.4,0,0,0-1.16-3.43,45,45,0,0,1,3.75,3.43Z" style="fill:#fff"></path><path d="M355.07,384.63H343.15c1.73-1.54,4.83-3.58,6.46-4.87h6.06a2.56,2.56,0,0,1,.16.4C356.21,381.35,355.72,383.05,355.07,384.63Z" style="fill:#fff"></path><path d="M358,384.63h-1.74a11.86,11.86,0,0,1,2.4-3.37A5.31,5.31,0,0,0,358,384.63Z" style="fill:#fff"></path><path d="M361.14,391.43a8.12,8.12,0,0,1-.44,1.41H341.55c.18-.93.05-3.11.14-4.88h11.89a2.24,2.24,0,0,0-.23.78c0,.92,2,3.67,2,3.67a7.64,7.64,0,0,0,1.55-3.67,4.84,4.84,0,0,0,0-.78h3.25A5.34,5.34,0,0,1,361.14,391.43Z" style="fill:#fff"></path><path d="M348.13,346.94h2.67a12.35,12.35,0,0,0-2.05,1.51C348.71,348.36,348.42,347.73,348.13,346.94Z" style="fill:#fff"></path><path d="M356.55,346.94a8.68,8.68,0,0,1-1.31,2.12,7,7,0,0,0-.87-2.12Z" style="fill:#fff"></path><path d="M337.28,346.94c-.25,1.27-.85,4.18-1,4.87h-1.1a1,1,0,0,1,0-.17c0-1.07,1.28-3.56,1.9-4.71Z" style="fill:#fff"></path><path d="M337.4,355.15h0Z" style="fill:#fff"></path><path d="M372.27,391.31s-.21.7-.41,1.53H371C371.68,392,372.27,391.31,372.27,391.31Z" style="fill:#fff"></path><path d="M329.79,388h3.55c-1,2-2.16,3.92-2.16,3.92S330.48,390.07,329.79,388Z" style="fill:#fff"></path><path d="M332,376.43h-1.67c1-2.32,1.89-4.43,1.89-4.43S332.14,374.31,332,376.43Z" style="fill:#fff"></path><path d="M334.63,384.63H328.8a8.65,8.65,0,0,1-.37-2.69,12.87,12.87,0,0,1,.62-2.18h2.64c-.29,1.06.54,4.26.54,4.26a25.84,25.84,0,0,0,1.28-3.15,3.89,3.89,0,0,0,0-1.11h.41A13.74,13.74,0,0,1,334.63,384.63Z" style="fill:#fff"></path></g></g><g id="freepik--Peel--inject-39"><rect x="411.7" y="263.15" width="6.72" height="162.88" style="fill:#E84242"></rect><path d="M456.11,257.15c0,6.6-3.79,10.79-11.05,11.76-10.09,1.37-30,1.37-30,1.37s-19.9,0-30-1.37c-7.26-1-11.05-5.16-11.05-11.76,0-3,5.38-71.4,5.38-71.4h71.34S456.11,254.14,456.11,257.15Z" style="fill:#E84242"></path><g style="opacity:0.1"><path d="M456.11,257.15c0,6.6-3.79,10.79-11.05,11.76-7.53,1-20.52,1.28-26.63,1.35V426H411.7V270.25c-6.11-.06-19.1-.32-26.63-1.34-7.26-1-11.05-5.16-11.05-11.76,0-3,5.37-71.4,5.37-71.4h71.35S456.11,254.14,456.11,257.15Z"></path></g></g><g id="freepik--Character--inject-39"><path d="M211.39,362.43s0,0,0,.11,0,0,0,.08,0,.13,0,.22l0,.14a2.14,2.14,0,0,1,.06.31,2.07,2.07,0,0,0,0,.22c0,.16,0,.33.09.53s.12.64.19,1l.35,1.94q.06.31.12.66c.06.3.11.62.18.94s.13.73.2,1.12v0c.05.27.11.55.16.83.15.85.31,1.76.49,2.73a.15.15,0,0,1,0,.07c.19,1.08.4,2.24.62,3.45.06.32.12.64.19,1l.18,1s0,0,0,0c0,.21.07.42.12.64h0c.3,1.7.63,3.48,1,5.37.11.64.23,1.28.34,1.93.24,1.28.47,2.58.72,3.92.06.31.12.62.17.94q.53,2.92,1.1,6.07c0,.21.08.43.12.64.18,1,.37,2,.54,3a2,2,0,0,1,0,.24c.09.47.17,1,.26,1.44.35,1.94.71,3.93,1.08,5.95.1.5.19,1,.28,1.53.18,1,.37,2.05.56,3.09.24,1.3.48,2.6.72,3.93s.47,2.65.72,4c.13.67.25,1.35.37,2s.3,1.62.44,2.44h68.58c-8.47-35.19-15.61-63.54-15.61-63.54Z" style="fill:#37474f"></path><path d="M221.77,370.35q5.16,27.81,10.42,55.62h.95c-3.64-18.58-7.4-37.13-11.14-55.69C222,370.13,221.74,370.2,221.77,370.35Z" style="fill:#263238"></path><path d="M211.4,362.43a.5.5,0,0,1,0,.11s0,0,0,.08,0,.13,0,.22l0,.14a2.14,2.14,0,0,1,.06.31,2.07,2.07,0,0,0,0,.22c0,.16.06.33.09.53s.12.64.19,1c.11.56.22,1.21.35,1.94q.06.31.12.66c.06.3.11.62.18.94s.13.73.2,1.12v0c.05.27.11.55.16.83.15.85.31,1.76.49,2.73a.15.15,0,0,1,0,.07c.2,1.08.41,2.22.63,3.44.07.32.12.64.18,1l.18,1s0,0,0,0c0,.21.08.42.12.64h0c.31,1.69.63,3.48,1,5.37.11.64.23,1.28.34,1.93.24,1.28.48,2.58.72,3.92.06.31.12.62.17.94.36,1.95.73,4,1.1,6.07,0,.21.08.43.12.64.18,1,.37,2,.54,3a2,2,0,0,1,0,.24c.09.47.17,1,.26,1.44.36,1.94.72,3.93,1.08,5.95.1.5.19,1,.28,1.53.19,1,.37,2.05.56,3.09.24,1.3.48,2.6.72,3.93s.48,2.65.72,4c.13.67.25,1.35.37,2L223,426h34.37l2.76-28.22.1-1,.11-1.08h0l.54-5.52h0l.47-4.78,2.24-22.92Z" style="fill:#263238"></path><path d="M169.38,426h77.05c.13-6.82.26-13.41.43-19.63h0c0-.15,0-.3,0-.45s8.64-5.12,13.3-9.13a16.35,16.35,0,0,0,2.17-2.16v0h0c3-3.8,6-18.4,12.15-32.14H179.31C171,381.49,167.24,414,169.38,426Z" style="fill:#37474f"></path><path d="M264.5,393.61c-4.41,1.8-8.37,4.58-12.28,7.25-4.07,2.78-7.79,6-11.7,9-.15.11,0,.36.16.25,4.12-2.63,8.43-4.94,12.51-7.65s8.07-5.19,11.5-8.5A.19.19,0,0,0,264.5,393.61Z" style="fill:#263238"></path><path d="M265.05,368.14c-.52,2.82-1.21,5.61-1.82,8.41-.57,2.63-1,5.32-1.68,7.92a13.5,13.5,0,0,1-3.69,6.63c-1,1-2.17,1.8-3.27,2.68-.59.48-1.23.93-1.85,1.41.08-.37.15-.75.22-1.13l.54-3.21q.6-3.57,1.15-7.14c.71-4.68,1.37-9.4,2.35-14a.15.15,0,0,0-.29-.07c-1.17,4.59-2.46,9.13-3.47,13.76-.5,2.27-2.28,13.48-2.36,14.27s-.15,1.64-.17,2.47a10,10,0,0,0,0,2.51.2.2,0,0,0,.38,0h0a10.21,10.21,0,0,0,.71-2.44c.2-.8.39-1.61.53-2.43,0-.29.09-.59.13-.89,1.11-.67,2.14-1.56,3.17-2.3s2.24-1.6,3.3-2.48a12.68,12.68,0,0,0,4-6.29,45.63,45.63,0,0,0,1.32-8.06c.36-3.18.62-6.38,1.06-9.56C265.37,368,265.09,368,265.05,368.14Z" style="fill:#263238"></path><path d="M189.7,387.78c1.18-.62,5.76.47,14.1-.95a9.55,9.55,0,0,0,4.49-1.83c2.18-1.77,3.82-4.62,5.13-7.06a36,36,0,0,0,3.59-8.72c.05-.18.31-.1.28.08-.31,1.73-.48,3.45-.94,5.16a32.82,32.82,0,0,1-1.72,4.68c-1.26,2.83-2.73,5.86-5.27,7.77s-6.37,2.38-9.59,2.61c-1.87.13-9.18-.07-10.17-1.11A.41.41,0,0,1,189.7,387.78Z" style="fill:#263238"></path><path d="M259.84,267.82c13.28-2.85,65.3-27.25,76.25-45.19,8.62-14.13,14.9-52.73,15.53-58.55,1.72-16-41.21-22.75-43.75-13.64-4.52,16.2-5,49.48-7.06,53.46-4.17,7.91-31.58,32.22-51.38,45.34C236.62,257.73,235.68,273,259.84,267.82Z" style="fill: rgb(255, 196, 192);"></path><path d="M351.62,164.08c1.52-2.25,14.53-18.5,17.15-30.11,1.39-6.15,3.3-23.48-.33-24.8-3.32-1.19-5,3.43-5,3.43s.74-7.74-3.89-9.36-7.09,6.34-7.09,6.34.18-8-4.55-9.29-5.86,7.13-5.86,7.13.5-7.31-3.84-6.72c-5.22.7-4.63,14.29-7.35,20.71-.62,1.46-14.6,28.7-14.6,28.7Z" style="fill: rgb(255, 196, 192);"></path><path d="M341.77,107.52c.41,10-1.13,14.43-6,23-.1.17.13.35.24.18,5.57-7.91,8.32-13.2,6.29-23.19C342.16,107,341.76,107,341.77,107.52Z" style="fill:#263238"></path><path d="M352.17,109.64c-.48,10.42-2.11,15.25-6.6,24.56-.06.13.16.26.23.13,5.16-8.77,7.78-14.11,6.9-24.58C352.65,109.28,352.2,109.17,352.17,109.64Z" style="fill:#263238"></path><path d="M363.2,113c-1.19,10-2.76,15.42-8.27,23.91a.19.19,0,0,0,.3.22c6.46-8.11,8.46-14.8,8.27-24.06C363.49,112.48,363.27,112.41,363.2,113Z" style="fill:#263238"></path><path d="M309.59,153.36s-3.82-8.93-2.76-17.86c.67-5.6,7.65-26.67,12.28-25.27,6,1.8,3.95,14.82,2.13,21.06,0,0,13.84,4.16,14.41,13.81S309.59,153.36,309.59,153.36Z" style="fill: rgb(255, 196, 192);"></path><path d="M320.6,111.27c4.27,5.58,1.34,13.62,0,19.8a.58.58,0,0,0,.61.73c5.69,2.13,13.09,6.79,14.68,13a.15.15,0,0,0,.29,0c-.8-6.9-7.7-12.07-14.08-14,1.46-6.32,4-14.51-1.47-19.53A0,0,0,0,0,320.6,111.27Z" style="fill:#263238"></path><path d="M282.41,220.34l35.73,28.44s-37,18.07-56.47,21.66c-20.25,3.74-30.61-7.84-9.76-25.41C272.44,227.71,282.41,220.34,282.41,220.34Z" style="fill:#E84242"></path><polyline points="325.28 247.35 314.28 253.73 278.15 219.81 288.11 212.38 324.33 246.58" style="fill:#E84242"></polyline><path d="M310.18,249.15c-1-.72-1.89-1.59-2.81-2.4l-2.84-2.49c-1.92-1.68-3.82-3.4-5.7-5.13-3.76-3.45-7.54-6.88-11.25-10.4-1-1-2-1.93-3-2.92s-2-2.16-3.05-3.2c-.07-.07,0-.16.1-.1,1,.83,2,1.58,2.95,2.4s2,1.7,2.92,2.56q2.85,2.57,5.66,5.18c3.68,3.42,7.38,6.83,11,10.33,1,1,2,2,3,2.94s2.18,2,3.14,3.13A.07.07,0,0,1,310.18,249.15Z" style="fill:#263238"></path><path d="M277.31,368H175.55s8.63-72.49,35.85-119.53c10.18-17.58,38.42-14.48,44.07,3.88C264.19,280.74,277.6,367.66,277.31,368Z" style="fill:#E84242"></path><path d="M259.7,267c0-.36.06-.74.09-1.1s.06-1,.08-1.53c0-1,0-2,0-3.05,0-.09-.13-.08-.14,0-.09,1-.17,2-.21,3,0,.49,0,1,0,1.47a1.62,1.62,0,0,1,0,.22,66.4,66.4,0,0,0-2.14-8.41c0-.09-.19-.08-.18,0,.42,3.12,1.22,6.22,1.86,9.31s1.37,6.31,2.1,9.46a.08.08,0,0,0,.15,0C260.87,273.19,260.36,270.07,259.7,267Z" style="fill:#263238"></path><path d="M207.12,256c-12.72-4.76-56.74-28.42-65-47.76-6.47-15.25-10.92-62.41-10.7-68.27.63-16,44.08-16.49,45.27-7.11,2.11,16.69,1.58,57.75,3.07,62,3,8.44,22.66,28.42,40.33,44.29C231.56,249.4,230.26,264.65,207.12,256Z" style="fill: rgb(255, 196, 192);"></path><path d="M133.36,143c-1.75-2.08-16.39-16.88-20.21-28.16-2-6-5.73-23-2.25-24.69,3.17-1.54,5.34,2.88,5.34,2.88s-1.55-7.62,2.89-9.71,7.7,5.56,7.7,5.56-1-7.94,3.57-9.7S137,85.67,137,85.67s-1.27-7.22,3.11-7.09c5.27.16,6.11,13.73,9.48,19.84.76,1.39,17.51,27,17.51,27Z" style="fill: rgb(255, 196, 192);"></path><path d="M137.24,85.74c.64,10,2.64,14.24,8.41,22.21.11.15-.09.36-.22.2-6.37-7.29-9.65-12.26-8.67-22.4C136.8,85.25,137.21,85.27,137.24,85.74Z" style="fill:#263238"></path><path d="M127.12,88.94c1.57,10.31,3.7,14.94,9.13,23.74.08.12-.13.26-.21.14-6-8.18-9.22-13.22-9.43-23.72C126.6,88.63,127.05,88.47,127.12,88.94Z" style="fill:#263238"></path><path d="M116.51,93.47c2.24,9.87,4.35,15,10.72,22.91a.18.18,0,0,1-.27.25c-7.28-7.38-10-13.83-10.74-23.06C116.16,92.94,116.37,92.85,116.51,93.47Z" style="fill:#263238"></path><path d="M176.73,132.86s1.72-12.17-1.82-22.94c-1.75-5.36-10.38-25.72-14.85-23.85-5.76,2.42-2.38,15.15.09,21.17,0,0-13.34,5.58-12.89,15.24S176.73,132.86,176.73,132.86Z" style="fill: rgb(255, 196, 192);"></path><path d="M158.7,87.26c-3.67,6,.08,13.68,2,19.7a.57.57,0,0,1-.54.78c-5.43,2.72-12.31,8.13-13.23,14.47a.15.15,0,0,1-.3,0c.07-6.93,6.4-12.8,12.54-15.39-2.11-6.14-5.53-14-.57-19.58A0,0,0,0,1,158.7,87.26Z" style="fill:#263238"></path><path d="M191.72,205.74l-39.49,22.92s34,23.28,52.7,29.66c19.48,6.65,31.42-3.29,13.37-23.71C200.51,214.48,191.72,205.74,191.72,205.74Z" style="fill:#E84242"></path><polyline points="147.73 227.54 157.15 236.07 199.57 210.45 191.38 201.1 148.82 226.98" style="fill:#E84242"></polyline><path d="M162.12,232.46c1.12-.5,2.18-1.17,3.25-1.77s2.2-1.23,3.3-1.84Q172,227,175.31,225c4.4-2.58,8.81-5.15,13.17-7.82,1.2-.73,2.4-1.46,3.57-2.23s2.43-1.69,3.66-2.49c.08,0,0-.15-.08-.11-1.1.61-2.27,1.12-3.38,1.73s-2.28,1.25-3.4,1.89c-2.21,1.28-4.42,2.57-6.61,3.88-4.31,2.58-8.64,5.15-12.9,7.82l-3.56,2.24c-1.24.78-2.56,1.51-3.72,2.4C162,232.38,162,232.49,162.12,232.46Z" style="fill:#263238"></path><path d="M207.9,260a13.22,13.22,0,0,0-3-2.74c-2.33-1.61-5-2.43-7.61-3.46a.08.08,0,1,0-.05.15,26.82,26.82,0,0,1,6.87,4.38c1,.79,2,1.58,3,2.31a23,23,0,0,1,3.11,2.73c0,.05.15,0,.1-.08C209.62,262.16,208.75,261.1,207.9,260Z" style="fill:#263238"></path><path d="M220.93,242.37a37,37,0,0,0,11,15.7,20.34,20.34,0,0,0,8.51,4.42,8.69,8.69,0,0,0,5-.19,9.78,9.78,0,0,0,3.79-3.12,18.38,18.38,0,0,0,2.65-4.89,43.78,43.78,0,0,0,1.76-6,.06.06,0,1,1,.11,0c-.41,1.94-.66,3.91-1.21,5.82a19.86,19.86,0,0,1-2.06,4.83,12,12,0,0,1-3.44,3.67,7.77,7.77,0,0,1-5,1.18,18.25,18.25,0,0,1-9.39-3.88,32.37,32.37,0,0,1-7-7.22,34.37,34.37,0,0,1-4.91-10.27C220.7,242.29,220.89,242.25,220.93,242.37Z" style="fill:#263238"></path><path d="M245,257.85c-6.24,1.14-16.36-8.84-20.15-16.7-.26-.54.83-6,1.84-12.74.59-4.09,1.16-8.65,1.37-12.85,0-.86,26,7.75,26,7.75s-3,8.67-3.37,16a9.68,9.68,0,0,0,.09,1.73c0,.08,0,.18,0,.29C251.17,244.62,251,256.74,245,257.85Z" style="fill: rgb(255, 196, 192);"></path><path d="M248.09,241.32a15.3,15.3,0,0,0,2.71,0,2.48,2.48,0,0,0,0-.29,9.68,9.68,0,0,1-.09-1.73c.33-7.32,3.37-16,3.37-16s-21.08-7-25.29-7.75C229.34,220.46,232.58,240.18,248.09,241.32Z" style="fill:#263238"></path><path d="M217.85,191.1c-.28,9.77,11.65,34.51,19.66,38.55,11.61,5.86,27.05,2.48,31.13-10.66,3.95-12.74-12.15-44.7-20.77-48C235.19,166.11,218.25,176.66,217.85,191.1Z" style="fill: rgb(255, 196, 192);"></path><path d="M247.29,199.22c0-.06-.09.14,0,.21.84,1.64,1.54,3.67.29,4.94,0,0,0,.12.06.09C249.31,203.32,248.36,200.64,247.29,199.22Z" style="fill:#263238"></path><path d="M245,198.19c-2.78,1.07-.43,6.56,2.15,5.56S247.31,197.28,245,198.19Z" style="fill:#263238"></path><path d="M257,194.84c0-.07.17,0,.19.1.68,1.72,1.74,3.58,3.52,3.48.06,0,.09.09,0,.1C258.76,199.06,257.37,196.58,257,194.84Z" style="fill:#263238"></path><path d="M257.76,192.42c2.65-1.38,5.22,4,2.76,5.28S255.55,193.57,257.76,192.42Z" style="fill:#263238"></path><path d="M241.73,196.61a23.73,23.73,0,0,0,1.81-1.66,4,4,0,0,0,1.51-2,1.25,1.25,0,0,0-.79-1.32,3.11,3.11,0,0,0-3,.94,4.61,4.61,0,0,0-1.65,2.88A1.34,1.34,0,0,0,241.73,196.61Z" style="fill:#263238"></path><path d="M258.7,188.74a22.1,22.1,0,0,1-2.42.37,4,4,0,0,1-2.55-.09,1.29,1.29,0,0,1-.54-1.45,3.15,3.15,0,0,1,2.64-1.77,4.6,4.6,0,0,1,3.27.51A1.35,1.35,0,0,1,258.7,188.74Z" style="fill:#263238"></path><path d="M251.76,215.38a2.86,2.86,0,0,0,1.86.39,4.93,4.93,0,0,0,1.65-1.22.07.07,0,0,1,.11.06,2.5,2.5,0,0,1-1.76,1.85,2,2,0,0,1-2-.93C251.57,215.44,251.68,215.35,251.76,215.38Z" style="fill:#263238"></path><path d="M251.37,209.53a6.3,6.3,0,0,0,5,.91,7.88,7.88,0,0,0,2.12-.79c.13-.07.26-.14.38-.22s.22-.13.34-.22a.44.44,0,0,0,.18-.52v0a.83.83,0,0,0-.09-.16v0l-.07-.14c-.52-1.33-1.5-3.26-1.5-3.26.58,0,3.49.08,3.15-.59C258.08,199,255,192.86,251.09,188a.18.18,0,0,0-.3.18c2.45,5.4,5.84,10.34,8.38,15.73a11,11,0,0,0-3.09.35c-.16.13,2,3.7,2.15,4.32a.09.09,0,0,1,0,.06c-2.08,1.23-4,1.28-6.79.71C251.29,209.26,251.21,209.43,251.37,209.53Z" style="fill:#263238"></path><path d="M257.4,209.31a7.48,7.48,0,0,1-1.83,3.31,3.42,3.42,0,0,1-1.83.93c-1.51.22-2.08-1-2.29-2.18a8.32,8.32,0,0,1-.09-1.9A9.64,9.64,0,0,0,257.4,209.31Z" style="fill:#263238"></path><path d="M255.57,212.62a3.42,3.42,0,0,1-1.83.93c-1.51.22-2.08-1-2.29-2.18C253,210.89,254.84,211.26,255.57,212.62Z" style="fill:#ff97b8"></path><path d="M254.64,177.19a15,15,0,0,1-3.56,3.75c-7.84,6.11-26.77,6.51-26.77,6.51a64.62,64.62,0,0,1,4.21,18.7,5.85,5.85,0,0,1-3.1,5.29s-1.14-1.15-2.76-3c-2.94-6.66-4.93-13.29-4.81-17.34.4-14.44,17.34-25,30-20.12C249.84,171.74,252.21,174,254.64,177.19Z" style="fill:#263238"></path><path d="M253.38,180.89a31.32,31.32,0,0,1-12.15,5.25,63.83,63.83,0,0,1-13.79,1.38c-2.69,0-5.39-.1-8.08-.25-.08,0-.09.12,0,.13a70,70,0,0,0,14.67.93A35.07,35.07,0,0,0,247.17,185a29.49,29.49,0,0,0,6.27-4.08A0,0,0,1,0,253.38,180.89Z" style="fill:#263238"></path><path d="M229.61,210.93s-8.34-6.64-11.52-3.42,4.82,14,9.77,14.38a4.73,4.73,0,0,0,5.36-4.24Z" style="fill: rgb(255, 196, 192);"></path><path d="M220.46,210.55a.07.07,0,0,0,0,.13c3.5.34,6,2.75,8.06,5.42-1.28-.88-2.73-1.14-3.95.42-.07.09,0,.19.13.15a2.9,2.9,0,0,1,3.36.06,13.82,13.82,0,0,1,2.21,2.05c.23.23.69-.07.49-.36l-.05-.06C229.61,214.35,224.86,209.68,220.46,210.55Z" style="fill:#263238"></path><path d="M216.71,200.18c-.32-.1-12-5.61-13.38-5.94s-8.23,4.48-11.24,2-6.77-8.71-4.44-13.58,6-8.19,6-8.76-6.48-9.23-2.49-15.39,16.16-2.4,16.58-2.63-.14-6.8,3.88-9.31,11.5,1.85,12.51,1.2,6.33-4.35,12.38-3.41,5.62,10.72,5,12.43,6.27,12.09,6.27,12.09Z" style="fill:#ebebeb"></path><path d="M218.12,193.89a5.66,5.66,0,0,1-1.76-.73c-.59-.31-1.17-.61-1.76-.89a25.71,25.71,0,0,0-3.7-1.38,5,5,0,0,0-3.18-.2,2.29,2.29,0,0,0-1.06.86,2.26,2.26,0,0,0-.43.79,7.12,7.12,0,0,0,0,.8c0,.08.13.08.12,0a1.4,1.4,0,0,1,.18-1,3.86,3.86,0,0,1,.54-.6,2.3,2.3,0,0,1,1.59-.52,9.57,9.57,0,0,1,3.18.86l3.2,1.18a8.41,8.41,0,0,0,3.06,1C218.19,194,218.21,193.9,218.12,193.89Z" style="fill:#c7c7c7"></path><path d="M220.31,192.43l-7.25-3.62a36.08,36.08,0,0,1-7.05-4.2c-.06-.05-.14,0-.08.09a36.39,36.39,0,0,0,6.67,4.75,51,51,0,0,0,7.66,3.12C220.33,192.59,220.38,192.47,220.31,192.43Z" style="fill:#c7c7c7"></path><path d="M223.94,185.66c-1.88-1.35-3.9-2.52-5.9-3.69a22.89,22.89,0,0,0-5.6-2.39.06.06,0,0,0,0,.11,29.55,29.55,0,0,1,5.41,3c1.93,1.16,3.88,2.35,5.91,3.33A.22.22,0,0,0,223.94,185.66Z" style="fill:#c7c7c7"></path><path d="M223,163.71a2.36,2.36,0,0,0-2.63,2.53c.1,1.75,1.35,3.4,2.36,4.77a23.09,23.09,0,0,0,3.82,4,23.6,23.6,0,0,0,5.31,3.22c.08,0,.13-.06.06-.1a27.41,27.41,0,0,1-7.33-6.37,25.44,25.44,0,0,1-2.71-4c-.64-1.18-1.07-3.45.8-3.76s3.18,1.39,4.72,1.94c0,0,.05,0,0-.06C225.86,165.28,224.76,163.88,223,163.71Z" style="fill:#c7c7c7"></path><path d="M236.51,155.37a12.17,12.17,0,0,0,1.13,7.84A21.25,21.25,0,0,0,240,167a23.26,23.26,0,0,0,3,3.55.06.06,0,0,0,.1-.07c-.73-1.27-1.74-2.37-2.49-3.62a28.45,28.45,0,0,1-2-3.91,26.49,26.49,0,0,1-1.2-3.69,17.62,17.62,0,0,1-.54-3.89A.17.17,0,0,0,236.51,155.37Z" style="fill:#c7c7c7"></path><path d="M235.54,167.18a49.22,49.22,0,0,0-4.86-5,.18.18,0,0,0-.25.26c1.56,1.69,3,3.49,4.49,5.28s2.79,3.66,4.34,5.33c.05.05.12,0,.09-.08A26.22,26.22,0,0,0,235.54,167.18Z" style="fill:#c7c7c7"></path><path d="M220.81,204.29c-1.2-1.28,6.75-22,31.16-31,1.14-.42-4.78-8.28-6.36-8.41s-32.51,13.69-32.69,34.53C212.91,200.85,220.81,204.29,220.81,204.29Z" style="fill:#dbdbdb"></path><path d="M252.4,245.51c.73.1,2.39,2.94,2.78,3.57s27.74,121.47,28.26,126.69S294,426,294,426H179.6s10.72-70.07,10.72-71.26c0,0-13.65-1.19-13.5-1.59s2.27-9.64,2.27-9.64l13.21-1.59s19.48-68.29,20.8-74.36,6.55-26.15,8.39-29a24,24,0,0,1,3.31-1s.9,26.68,1.08,26.68,26.59,3.83,26.59,3.83Z" style="fill:#ebebeb"></path></g><g id="freepik--Pizza--inject-39"><path d="M249.64,88.14s40.9-3.66,69,8.26c20.89,8.86,39.88,33.1,26.33,42.84-21.08,15.15-90.55-28.58-90.55-28.58s-43.11.65-77.62-10.82-68-46.82-28.4-53.51S249.64,88.14,249.64,88.14Z" style="fill:#E84242"></path><path d="M133,68.41v0c6.59,11.91,25,25.18,43.79,31.41,34.51,11.46,77.62,10.82,77.62,10.82-12.11-8-44.44-37.72-77.27-50.59S128.71,53.22,133,68.41Z" style="opacity:0.1"></path><path d="M249.65,88.14c20.22,15.46,69.22,46.49,84.93,37.88,7.17-3.93,4.56-12.18-.4-20a62.92,62.92,0,0,0-15.54-9.66C290.54,84.47,249.65,88.14,249.65,88.14Z" style="opacity:0.1"></path></g><g id="freepik--Tools--inject-39"><path d="M121.4,377.7v42.72c0,3.05-1.14,5.55-2.53,5.55l-16.44,0H86c-1.39,0-2.51-2.47-2.51-5.52V377.7c0-3.06,1.12-5.53,2.51-5.53h1.52v-4h14.94v0l14.92,0v4h1.52C120.26,372.17,121.4,374.64,121.4,377.7Z" style="fill:#E84242"></path><rect x="86.42" y="361.6" width="31.97" height="7.19" style="fill:#37474f"></rect><rect x="83.46" y="386.75" width="37.94" height="26.99" style="fill:#ebebeb"></rect><path d="M79.24,418.44c0,5.6-2.1,7.53-3.17,7.53l-9.41,0H57.84c-1.08,0-3.19-1.92-3.2-7.52,0-6.65,4.75-10.63,4.75-14.26,0-2.37-2.29-9.72-1.31-9.72l17.65,0c1,0-1.28,7.35-1.28,9.71C74.46,407.83,79.23,411.8,79.24,418.44Z" style="fill:#ebebeb"></path><path d="M59.46,389.55H74.35a2.15,2.15,0,0,1,2.15,2.15v4.37a.15.15,0,0,1-.15.15H57.46a.15.15,0,0,1-.15-.15V391.7a2.15,2.15,0,0,1,2.15-2.15Z" transform="translate(-0.57 0.1) rotate(-0.08)" style="fill:#37474f"></path><rect x="125.18" y="424.91" width="15.15" height="5.72" transform="translate(273.88 852.85) rotate(178.87)" style="fill:#a6a6a6"></rect><circle cx="149.84" cy="428.67" r="17.6" transform="translate(-261.41 236.11) rotate(-45.64)" style="fill:#c7c7c7"></circle><circle cx="149.84" cy="428.67" r="15.11" transform="translate(-289.37 544) rotate(-85.45)" style="fill:#dbdbdb"></circle><path d="M146.68,429.36a3.24,3.24,0,1,0,2.47-3.86A3.23,3.23,0,0,0,146.68,429.36Z" style="fill:#a6a6a6"></path><path d="M148.92,409.54c1.11,0,.48-3-.84-3.81s-10.5.33-13.91,2.3c-4,2.29-8.8,10.5-9.85,14.71-.48,1.9-17.41-.59-27-.35-12.76.31-25.69,5-31.15,7-1.56.56-1.65,3-.28,4C69,435.43,86.86,435.86,98,435s24.6-4.17,25.83-3.76,2.71,11.14,10.64,15c2.31,1.14,3.68-1.55,3.45-2.07s-10.17-7.52-6.7-20.66A18.85,18.85,0,0,1,148.92,409.54Z" style="fill:#E84242"></path><path d="M148.92,409.54c1.11,0,.48-3-.84-3.81s-10.5.33-13.91,2.3c-4,2.29-8.8,10.5-9.85,14.71-.48,1.9-17.41-.59-27-.35-12.76.31-25.69,5-31.15,7-1.56.56-1.65,3-.28,4C69,435.43,86.86,435.86,98,435s24.6-4.17,25.83-3.76,2.71,11.14,10.64,15c2.31,1.14,3.68-1.55,3.45-2.07s-10.17-7.52-6.7-20.66A18.85,18.85,0,0,1,148.92,409.54Z" style="opacity:0.1"></path><rect x="169.05" y="441.24" width="91.72" height="22.3" style="fill:#E84242"></rect><path d="M169.05,449.74V455h-6.9c-2.75,0-13.27,3.68-16.85,2.42-5.22-1.83-5.22-5.07-5.22-5.07s0-3.23,5.22-5.05c3.58-1.26,14.1,2.41,16.85,2.41Z" style="fill:#E84242"></path><path d="M169.05,449.74V455h-3.41l-.56-5.29Z" style="opacity:0.2"></path><path d="M260.78,455v-5.29h6.9c2.75,0,13.27-3.67,16.85-2.41,5.22,1.82,5.22,5.06,5.22,5.06s0,3.23-5.22,5.06c-3.58,1.26-14.1-2.42-16.85-2.42Z" style="fill:#E84242"></path><path d="M264.64,455h-3.86v-5.29h3.3Z" style="opacity:0.2"></path></g><g id="freepik--Tomatoes--inject-39"><path d="M280,431.35c3.44,11.2,14,9.77,17,8.85s12.52-5.65,9.08-16.85-14.71-8.62-16.71-8C287,416,276.51,420.14,280,431.35Z" style="fill:#E84242"></path><path d="M280,431.35c3.44,11.2,14,9.77,17,8.85s12.52-5.65,9.08-16.85-14.71-8.62-16.71-8C287,416,276.51,420.14,280,431.35Z" style="opacity:0.1"></path><path d="M290.28,416.87s.46,4.22,7.86,1.7C298.14,418.57,293.14,413.24,290.28,416.87Z" style="fill:#37474f"></path><path d="M291,418.62s3.48.23,2.49-6.11C293.48,412.51,288.46,415.8,291,418.62Z" style="fill:#37474f"></path><path d="M290.71,417.5s-1.21,3.27-6.6-.22C284.11,417.28,289.16,414,290.71,417.5Z" style="fill:#37474f"></path><path d="M290.48,416.67s-3.24,2.74,3,7.47C293.46,424.14,295.09,417,290.48,416.67Z" style="fill:#37474f"></path><path d="M290.14,417.28s-4.67-1.31-4.06,6.68C286.08,424,293.23,421.47,290.14,417.28Z" style="fill:#37474f"></path><path d="M290.93,418.26a8.37,8.37,0,0,0-2.91-7.13,2.67,2.67,0,0,0-2.46,2.1s4,2.23,4.26,5.86l.93-.56" style="fill:#37474f"></path><path d="M306.13,452.59c11.18,3.54,16-5.94,16.93-8.93s2.47-13.51-8.71-17.05-15.45,7.21-16.08,9.21C297.56,438.06,295,449.06,306.13,452.59Z" style="fill:#E84242"></path><path d="M300.09,435.87s3.73,2,5.86-5.51C306,430.36,298.73,431.45,300.09,435.87Z" style="fill:#37474f"></path><path d="M301.94,436.28s2.16-2.74-3.62-5.53C298.32,430.75,298.17,436.75,301.94,436.28Z" style="fill:#37474f"></path><path d="M300.85,435.87s2,2.85-3.93,5.3C296.92,441.17,297.13,435.18,300.85,435.87Z" style="fill:#37474f"></path><path d="M300,435.59s.42,4.22,7.84,1.79C307.88,437.38,302.94,432,300,435.59Z" style="fill:#37474f"></path><path d="M300.35,436.22s-3.74,3.09,3.19,7.13C303.54,443.35,305.55,436.05,300.35,436.22Z" style="fill:#37474f"></path><path d="M301.6,436.13a8.35,8.35,0,0,0-7.52-1.66,2.69,2.69,0,0,0,.33,3.22s4.1-2,7.24-.18l.07-1.08" style="fill:#37474f"></path><path d="M357.87,444.68c-7.48,9-16.65,3.68-19.07,1.67s-9.4-10-1.93-19,16.89-2.33,18.5-1C357.19,427.82,365.34,435.64,357.87,444.68Z" style="fill:#E84242"></path><path d="M353.87,427.35s-2,3.72-7.91-1.45C346,425.9,352.62,422.9,353.87,427.35Z" style="fill:#37474f"></path><path d="M352.54,428.69s-3.3-1.12,0-6.6C352.58,422.09,356,427.05,352.54,428.69Z" style="fill:#37474f"></path><path d="M353.23,427.77s-.13,3.48,6.18,2.32C359.41,430.09,356,425.16,353.23,427.77Z" style="fill:#37474f"></path><path d="M353.76,427.09s1.94,3.77-5.62,5.76C348.14,432.85,349.37,425.64,353.76,427.09Z" style="fill:#37474f"></path><path d="M353.84,427.78s4.82.58,1.19,7.72C355,435.5,349.38,430.46,353.84,427.78Z" style="fill:#37474f"></path><path d="M352.74,428.39a8.37,8.37,0,0,1,5.42-5.48,2.69,2.69,0,0,1,1.47,2.89s-4.53.53-6.18,3.77l-.65-.87" style="fill:#37474f"></path></g><g id="freepik--Oil--inject-39"><path d="M442.68,412.11,438.84,409c2.93-3.64,6.27-8.3,6.82-9.77-.57-3.69-4-15.86-6.22-17.57H425.11v-4.92h14.61c7,0,10.84,22,10.87,22.19C450.7,399.82,451,401.84,442.68,412.11Zm3-13Z" style="fill:#ebebeb"></path><path d="M417.74,444.7c-24.84,0-30.85-16.15-28.4-27.48s19.79-21,20-24.73,0-20.31-.89-21.44-6.57-3.33-8.11-3.33-1.54-1.89,0-1.89H429c1.54,0,1.54,1.89,0,1.89s-2.51,1.9-2.78,3.91c-.2,1.4-.48,17.78-.07,20.86.5,3.66,17.54,13.41,20,24.73S442.57,444.7,417.74,444.7Z" style="fill:#ebebeb"></path><path d="M417.12,440.87c-20.88,0-25.93-13.57-23.87-23.09s19.62-20.17,19.28-23.26c-.06-.61-.11-12.72-.14-14H422.8c0,1.32.07,13.45.15,14,.41,3.08,16,13.73,18.05,23.26S438,440.87,417.12,440.87Z" style="fill:#E84242"></path></g></svg>