<?xml version="1.0" encoding="UTF-8"?>
<svg width="140px" height="46px" viewBox="0 0 140 46" version="1.1" xmlns="http://www.w3.org/2000/svg" xmlns:xlink="http://www.w3.org/1999/xlink">
    <title>Brand/logo-normal</title>
    <g id="Brand/logo-normal" stroke="none" stroke-width="1" fill="none" fill-rule="evenodd">
        <g id="Group" transform="translate(0.000000, 2.000000)">
            <g id="2" opacity="0.2992699" transform="translate(11.000000, 0.000000)" fill="#3167EB">
                <path d="M1.8994937,16.7573584 L16.0416284,2.6152237 C18.3847742,0.272077979 22.1837654,0.272077979 24.5269092,2.6152237 L38.6690434,16.7573584 C41.0121901,19.1005042 41.0121901,22.8994954 38.6690434,25.2426392 L24.5269092,39.3847734 C22.1837654,41.7279201 18.3847742,41.7279201 16.0416284,39.3847734 L1.8994937,25.2426392 C-0.443652021,22.8994954 -0.443652021,19.1005042 1.8994937,16.7573584 Z"></path>
            </g>
            <path d="M2.6152237,16.7573584 L16.7573584,2.6152237 C19.1005042,0.272077979 22.8994954,0.272077979 25.2426392,2.6152237 L39.3847734,16.7573584 C41.7279201,19.1005042 41.7279201,22.8994954 39.3847734,25.2426392 L25.2426392,39.3847734 C22.8994954,41.7279201 19.1005042,41.7279201 16.7573584,39.3847734 L2.6152237,25.2426392 C0.272077979,22.8994954 0.272077979,19.1005042 2.6152237,16.7573584 Z" id="1" fill="#3167EB"></path>
            <g id="Group-2" transform="translate(20.000000, 20.499999) rotate(-45.000000) translate(-20.000000, -20.499999) translate(14.000000, 12.999999)" fill="#FFFFFF">
                <path d="M5.9999952,2.27373675e-13 C7.86501648,2.27373675e-13 9.3786312,1.51380317 9.3786312,3.37703948 L10.0529196,3.37863574 C10.800102,3.37863574 11.4435904,3.98308278 11.4900276,4.72607652 L11.9973252,12.8428291 C12.0438348,13.5870005 11.4783704,14.19027 10.7334036,14.19027 L1.26658675,14.19027 C0.522031764,14.19027 -0.0437713439,13.5858232 0.00266574775,12.8428291 L0.5099628,4.72607652 C0.556473528,3.98190541 1.19862516,3.37863574 1.9470708,3.37863574 L2.62135932,3.37863574 C2.62135932,1.51279276 4.1362212,2.27373675e-13 5.9999952,2.27373675e-13 Z M8.0271766,3.3786358 C8.0271766,2.2601532 7.11859101,1.3514544 5.9999951,1.3514544 C4.88219554,1.3514544 3.9728136,2.25959431 3.9728136,3.37703952 L8.0271766,3.3786358 Z M2.62135945,4.73009 L1.94707075,4.73009 C1.91231402,4.73009 1.86078172,4.77843635 1.85878538,4.81037777 L1.3620433,12.838798 L10.6428723,12.837053 L10.1412051,4.81037777 C10.1392852,4.77965371 10.0864529,4.73009 10.0529197,4.73009 L9.37863081,4.73009 L8.02717645,4.73009 L3.97281382,4.73009 L2.62135945,4.73009 Z" id="Combined-Shape"></path>
            </g>
        </g>
        <path d="M60.1484335,27 L61.3359324,23.351566 L67.1093644,23.351566 L68.2968633,27 L71.9218598,27 L66.4062401,11.0000153 L62.0468692,11.0000153 L56.523437,27 L60.1484335,27 Z M66.2578027,20.7109435 L62.1953066,20.7109435 L64.1640547,14.6562618 L64.2890546,14.6562618 L66.2578027,20.7109435 Z M76.6406195,27.1953123 C77.932285,27.1953123 79.1145755,26.6903375 80.1874911,25.680388 L80.1874911,27 L83.468738,27 L83.468738,11.0000153 L80.1484287,11.0000153 L80.1484287,16.2483708 C79.1432213,15.3119647 77.9713474,14.8437616 76.632807,14.8437616 C73.999997,14.8437616 71.7734367,16.8906346 71.7734367,21.0156307 C71.7734367,25.0312519 73.9062471,27.1953123 76.6406195,27.1953123 Z M77.6718709,24.5468773 C76.0542239,24.5468773 75.1718709,23.0937537 75.1718709,21.0000057 C75.1718709,18.9218827 76.038744,17.4921966 77.6718709,17.4921966 C79.2740381,17.4921966 80.1718709,18.8593828 80.1718709,21.0000057 C80.1718709,23.1406287 79.2585582,24.5468773 77.6718709,24.5468773 Z M88.5234331,27 L88.5234331,19.7968819 C88.5234331,18.4687581 89.3671823,17.5859465 90.4765562,17.5859465 C91.5703052,17.5859465 92.3046795,18.3359458 92.3046795,19.5156321 L92.3046795,27 L95.5312389,27 L95.5312389,19.671882 C95.5312389,18.4296957 96.2421757,17.5859465 97.453112,17.5859465 C98.515611,17.5859465 99.3124853,18.2500083 99.3124853,19.5859446 L99.3124853,27 L102.632795,27 L102.632795,18.9296952 C102.632795,16.3281352 101.085921,14.8437616 98.8515482,14.8437616 C97.0937374,14.8437616 95.7265512,15.7421982 95.2343642,17.1171969 L95.1093643,17.1171969 C94.7265521,15.7265733 93.4999908,14.8437616 91.8515549,14.8437616 C90.2343689,14.8437616 89.0078076,15.7031358 88.5078081,17.1171969 L88.3671832,17.1171969 L88.3671832,15.0000114 L85.1953112,15.0000114 L85.1953112,27 L88.5234331,27 Z M105.929685,13.4531379 C106.921871,13.4531379 107.73437,12.6953261 107.73437,11.7656395 C107.73437,10.8437654 106.921871,10.0859536 105.929685,10.0859536 C104.945311,10.0859536 104.132811,10.8437654 104.132811,11.7656395 C104.132811,12.6953261 104.945311,13.4531379 105.929685,13.4531379 Z M107.585933,27 L107.585933,15.0000114 L104.257811,15.0000114 L104.257811,27 L107.585933,27 Z M112.570308,27 L112.570308,20.0625066 C112.578121,18.5156331 113.499995,17.609384 114.843743,17.609384 C116.17968,17.609384 116.984366,18.4843831 116.976554,19.9531317 L116.976554,27 L120.304676,27 L120.304676,19.3593823 C120.304676,16.56251 118.664052,14.8437616 116.164055,14.8437616 C114.382806,14.8437616 113.093745,15.7187608 112.554683,17.1171969 L112.414058,17.1171969 L112.414058,15.0000114 L109.242186,15.0000114 L109.242186,27 L112.570308,27 Z" id="Admin" fill="#3167EB" fill-rule="nonzero"></path>
        <path d="M59.4042969,37.140625 C60.1269531,37.140625 60.7207031,36.9648438 61.1855469,36.6132812 C61.6503906,36.2617188 61.96875,35.7675781 62.140625,35.1308594 L62.140625,35.1308594 L61.0507812,34.9960938 C60.890625,35.4414062 60.6738281,35.765625 60.4003906,35.96875 C60.1269531,36.171875 59.796875,36.2734375 59.4101562,36.2734375 C58.890625,36.2734375 58.4570312,36.0917969 58.109375,35.7285156 C57.7617188,35.3652344 57.5683594,34.8417969 57.5292969,34.1582031 L57.5292969,34.1582031 L62.1699219,34.1582031 C62.1738281,34.0332031 62.1757812,33.9394531 62.1757812,33.8769531 C62.1757812,32.8496094 61.9121094,32.0527344 61.3847656,31.4863281 C60.8574219,30.9199219 60.1777344,30.6367188 59.3457031,30.6367188 C58.4863281,30.6367188 57.7871094,30.9257812 57.2480469,31.5039062 C56.7089844,32.0820312 56.4394531,32.8945312 56.4394531,33.9414062 C56.4394531,34.953125 56.7060547,35.7392578 57.2392578,36.2998047 C57.7724609,36.8603516 58.4941406,37.140625 59.4042969,37.140625 Z M61.0625,33.2910156 L57.5878906,33.2910156 C57.6230469,32.7480469 57.8056641,32.3144531 58.1357422,31.9902344 C58.4658203,31.6660156 58.8730469,31.5039062 59.3574219,31.5039062 C59.8925781,31.5039062 60.328125,31.7070312 60.6640625,32.1132812 C60.8828125,32.375 61.015625,32.7675781 61.0625,33.2910156 L61.0625,33.2910156 Z M66.3453832,37.140625 C67.0250707,37.140625 67.5983129,36.9384766 68.0651098,36.5341797 C68.5319067,36.1298828 68.8219457,35.5703125 68.935227,34.8554688 L68.935227,34.8554688 L67.8981176,34.7207031 C67.8238989,35.2480469 67.6481176,35.6386719 67.3707739,35.8925781 C67.0934301,36.1464844 66.747727,36.2734375 66.3336645,36.2734375 C65.8180395,36.2734375 65.4000707,36.0839844 65.0797582,35.7050781 C64.7594457,35.3261719 64.5992895,34.71875 64.5992895,33.8828125 C64.5992895,33.0585938 64.7653051,32.4560547 65.0973364,32.0751953 C65.4293676,31.6943359 65.8610082,31.5039062 66.3922582,31.5039062 C66.7438207,31.5039062 67.0436254,31.609375 67.2916723,31.8203125 C67.5397192,32.03125 67.7125707,32.3457031 67.810227,32.7636719 L67.810227,32.7636719 L68.8356176,32.6054688 C68.7145239,31.9765625 68.4391332,31.4912109 68.0094457,31.1494141 C67.5797582,30.8076172 67.0270239,30.6367188 66.3512426,30.6367188 C65.8160864,30.6367188 65.3209692,30.7626953 64.8658911,31.0146484 C64.4108129,31.2666016 64.0719457,31.6445312 63.8492895,32.1484375 C63.6266332,32.6523438 63.5153051,33.2402344 63.5153051,33.9121094 C63.5153051,34.9511719 63.7740942,35.7490234 64.2916723,36.3056641 C64.8092504,36.8623047 65.4938207,37.140625 66.3453832,37.140625 Z M72.7356884,37.140625 C73.2786571,37.140625 73.7796337,37.0136719 74.2386181,36.7597656 C74.6976024,36.5058594 75.0472118,36.1494141 75.2874462,35.6904297 C75.5276806,35.2314453 75.6477977,34.6015625 75.6477977,33.8007812 C75.6477977,32.8125 75.3763134,32.0380859 74.8333446,31.4775391 C74.2903759,30.9169922 73.5911571,30.6367188 72.7356884,30.6367188 C71.9661571,30.6367188 71.3138134,30.8671875 70.7786571,31.328125 C70.1380321,31.8828125 69.8177196,32.7363281 69.8177196,33.8886719 C69.8177196,34.9394531 70.0862743,35.7441406 70.6233837,36.3027344 C71.1604931,36.8613281 71.8645946,37.140625 72.7356884,37.140625 Z M72.7356884,36.2734375 C72.2083446,36.2734375 71.7708446,36.0751953 71.4231884,35.6787109 C71.0755321,35.2822266 70.901704,34.6855469 70.901704,33.8886719 C70.901704,33.0917969 71.0755321,32.4960938 71.4231884,32.1015625 C71.7708446,31.7070312 72.2083446,31.5097656 72.7356884,31.5097656 C73.2552196,31.5097656 73.6897899,31.7080078 74.0393993,32.1044922 C74.3890087,32.5009766 74.5638134,33.0839844 74.5638134,33.8535156 C74.5638134,34.6699219 74.3899852,35.2773438 74.042329,35.6757812 C73.6946727,36.0742188 73.2591259,36.2734375 72.7356884,36.2734375 Z M78.3115404,37 L78.3115404,33.7714844 C78.3115404,33.2050781 78.368181,32.7714844 78.4814622,32.4707031 C78.5947435,32.1699219 78.7773607,31.9414062 79.0293138,31.7851562 C79.2812669,31.6289062 79.555681,31.5507812 79.852556,31.5507812 C80.243181,31.5507812 80.524431,31.6679688 80.696306,31.9023438 C80.868181,32.1367188 80.9541185,32.4882812 80.9541185,32.9570312 L80.9541185,32.9570312 L80.9541185,37 L82.008806,37 L82.008806,33.3847656 C82.008806,32.7441406 82.1533372,32.2783203 82.4423997,31.9873047 C82.7314622,31.6962891 83.0947435,31.5507812 83.5322435,31.5507812 C83.774431,31.5507812 83.9853685,31.6074219 84.165056,31.7207031 C84.3447435,31.8339844 84.4687669,31.9833984 84.5371263,32.1689453 C84.6054857,32.3544922 84.6396654,32.6582031 84.6396654,33.0800781 L84.6396654,33.0800781 L84.6396654,37 L85.6884935,37 L85.6884935,32.7285156 C85.6884935,32.0175781 85.5224779,31.4912109 85.1904466,31.1494141 C84.8584154,30.8076172 84.383806,30.6367188 83.7666185,30.6367188 C82.977556,30.6367188 82.336931,31 81.8447435,31.7265625 C81.7236497,31.3828125 81.5156419,31.1152344 81.2207201,30.9238281 C80.9257982,30.7324219 80.5478685,30.6367188 80.086931,30.6367188 C79.6728685,30.6367188 79.3037279,30.7294922 78.9795091,30.9150391 C78.6552904,31.1005859 78.3955247,31.3457031 78.2002122,31.6503906 L78.2002122,31.6503906 L78.2002122,30.7773438 L77.2568529,30.7773438 L77.2568529,37 L78.3115404,37 Z M88.6803611,37 L88.6803611,33.7714844 C88.6803611,33.2050781 88.7370017,32.7714844 88.850283,32.4707031 C88.9635642,32.1699219 89.1461814,31.9414062 89.3981346,31.7851562 C89.6500877,31.6289062 89.9245017,31.5507812 90.2213767,31.5507812 C90.6120017,31.5507812 90.8932517,31.6679688 91.0651267,31.9023438 C91.2370017,32.1367188 91.3229392,32.4882812 91.3229392,32.9570312 L91.3229392,32.9570312 L91.3229392,37 L92.3776267,37 L92.3776267,33.3847656 C92.3776267,32.7441406 92.522158,32.2783203 92.8112205,31.9873047 C93.100283,31.6962891 93.4635642,31.5507812 93.9010642,31.5507812 C94.1432517,31.5507812 94.3541892,31.6074219 94.5338767,31.7207031 C94.7135642,31.8339844 94.8375877,31.9833984 94.9059471,32.1689453 C94.9743064,32.3544922 95.0084861,32.6582031 95.0084861,33.0800781 L95.0084861,33.0800781 L95.0084861,37 L96.0573142,37 L96.0573142,32.7285156 C96.0573142,32.0175781 95.8912986,31.4912109 95.5592674,31.1494141 C95.2272361,30.8076172 94.7526267,30.6367188 94.1354392,30.6367188 C93.3463767,30.6367188 92.7057517,31 92.2135642,31.7265625 C92.0924705,31.3828125 91.8844627,31.1152344 91.5895408,30.9238281 C91.2946189,30.7324219 90.9166892,30.6367188 90.4557517,30.6367188 C90.0416892,30.6367188 89.6725486,30.7294922 89.3483299,30.9150391 C89.0241111,31.1005859 88.7643455,31.3457031 88.569033,31.6503906 L88.569033,31.6503906 L88.569033,30.7773438 L87.6256736,30.7773438 L87.6256736,37 L88.6803611,37 Z M100.607776,37.140625 C101.330432,37.140625 101.924182,36.9648438 102.389026,36.6132812 C102.853869,36.2617188 103.172229,35.7675781 103.344104,35.1308594 L103.344104,35.1308594 L102.25426,34.9960938 C102.094104,35.4414062 101.877307,35.765625 101.603869,35.96875 C101.330432,36.171875 101.000354,36.2734375 100.613635,36.2734375 C100.094104,36.2734375 99.66051,36.0917969 99.3128537,35.7285156 C98.9651975,35.3652344 98.7718381,34.8417969 98.7327756,34.1582031 L98.7327756,34.1582031 L103.373401,34.1582031 C103.377307,34.0332031 103.37926,33.9394531 103.37926,33.8769531 C103.37926,32.8496094 103.115588,32.0527344 102.588244,31.4863281 C102.060901,30.9199219 101.381213,30.6367188 100.549182,30.6367188 C99.6898069,30.6367188 98.9905881,30.9257812 98.4515256,31.5039062 C97.9124631,32.0820312 97.6429319,32.8945312 97.6429319,33.9414062 C97.6429319,34.953125 97.9095334,35.7392578 98.4427366,36.2998047 C98.9759397,36.8603516 99.6976194,37.140625 100.607776,37.140625 Z M102.265979,33.2910156 L98.7913694,33.2910156 C98.8265256,32.7480469 99.0091428,32.3144531 99.3392209,31.9902344 C99.6692991,31.6660156 100.076526,31.5039062 100.560901,31.5039062 C101.096057,31.5039062 101.531604,31.7070312 101.867541,32.1132812 C102.086291,32.375 102.219104,32.7675781 102.265979,33.2910156 L102.265979,33.2910156 Z M106.084018,37 L106.084018,33.7421875 C106.084018,33.296875 106.142612,32.8867188 106.259799,32.5117188 C106.337924,32.265625 106.468784,32.0732422 106.652378,31.9345703 C106.835971,31.7958984 107.043003,31.7265625 107.273471,31.7265625 C107.531284,31.7265625 107.789096,31.8027344 108.046909,31.9550781 L108.046909,31.9550781 L108.41019,30.9765625 C108.043003,30.75 107.681674,30.6367188 107.326206,30.6367188 C107.080112,30.6367188 106.854526,30.7070312 106.649448,30.8476562 C106.44437,30.9882812 106.220737,31.2792969 105.978549,31.7207031 L105.978549,31.7207031 L105.978549,30.7773438 L105.029331,30.7773438 L105.029331,37 L106.084018,37 Z M111.917683,37.140625 C112.59737,37.140625 113.170612,36.9384766 113.637409,36.5341797 C114.104206,36.1298828 114.394245,35.5703125 114.507526,34.8554688 L114.507526,34.8554688 L113.470417,34.7207031 C113.396198,35.2480469 113.220417,35.6386719 112.943073,35.8925781 C112.66573,36.1464844 112.320026,36.2734375 111.905964,36.2734375 C111.390339,36.2734375 110.97237,36.0839844 110.652058,35.7050781 C110.331745,35.3261719 110.171589,34.71875 110.171589,33.8828125 C110.171589,33.0585938 110.337605,32.4560547 110.669636,32.0751953 C111.001667,31.6943359 111.433308,31.5039062 111.964558,31.5039062 C112.31612,31.5039062 112.615925,31.609375 112.863972,31.8203125 C113.112019,32.03125 113.28487,32.3457031 113.382526,32.7636719 L113.382526,32.7636719 L114.407917,32.6054688 C114.286823,31.9765625 114.011433,31.4912109 113.581745,31.1494141 C113.152058,30.8076172 112.599323,30.6367188 111.923542,30.6367188 C111.388386,30.6367188 110.893269,30.7626953 110.438191,31.0146484 C109.983112,31.2666016 109.644245,31.6445312 109.421589,32.1484375 C109.198933,32.6523438 109.087605,33.2402344 109.087605,33.9121094 C109.087605,34.9511719 109.346394,35.7490234 109.863972,36.3056641 C110.38155,36.8623047 111.06612,37.140625 111.917683,37.140625 Z M118.395878,37.140625 C119.118535,37.140625 119.712285,36.9648438 120.177128,36.6132812 C120.641972,36.2617188 120.960332,35.7675781 121.132207,35.1308594 L121.132207,35.1308594 L120.042363,34.9960938 C119.882207,35.4414062 119.66541,35.765625 119.391972,35.96875 C119.118535,36.171875 118.788457,36.2734375 118.401738,36.2734375 C117.882207,36.2734375 117.448613,36.0917969 117.100957,35.7285156 C116.7533,35.3652344 116.559941,34.8417969 116.520878,34.1582031 L116.520878,34.1582031 L121.161503,34.1582031 C121.16541,34.0332031 121.167363,33.9394531 121.167363,33.8769531 C121.167363,32.8496094 120.903691,32.0527344 120.376347,31.4863281 C119.849003,30.9199219 119.169316,30.6367188 118.337285,30.6367188 C117.47791,30.6367188 116.778691,30.9257812 116.239628,31.5039062 C115.700566,32.0820312 115.431035,32.8945312 115.431035,33.9414062 C115.431035,34.953125 115.697636,35.7392578 116.230839,36.2998047 C116.764043,36.8603516 117.485722,37.140625 118.395878,37.140625 Z M120.054082,33.2910156 L116.579472,33.2910156 C116.614628,32.7480469 116.797246,32.3144531 117.127324,31.9902344 C117.457402,31.6660156 117.864628,31.5039062 118.349003,31.5039062 C118.88416,31.5039062 119.319707,31.7070312 119.655644,32.1132812 C119.874394,32.375 120.007207,32.7675781 120.054082,33.2910156 L120.054082,33.2910156 Z" id="ecommerce" fill="#7CA2FF" fill-rule="nonzero"></path>
    </g>
</svg>