<svg enable-background="new 0 0 270 270" viewBox="0 0 270 270" xmlns="http://www.w3.org/2000/svg" width="20" height="20"><path d="m114 0h-104c-5.5 0-10 4.5-10 10v104c0 5.5 4.5 10 10 10h104c5.5 0 10-4.5 10-10v-104c0-5.5-4.5-10-10-10zm-10 104h-84v-84h84z"></path><path d="m260 0h-104c-5.5 0-10 4.5-10 10v104c0 5.5 4.5 10 10 10h104c5.5 0 10-4.5 10-10v-104c0-5.5-4.5-10-10-10zm-10 104h-84v-84h84z"></path><path d="m114 146h-104c-5.5 0-10 4.5-10 10v104c0 5.5 4.5 10 10 10h104c5.5 0 10-4.5 10-10v-104c0-5.5-4.5-10-10-10zm-10 104h-84v-84h84z"></path><path d="m260 146h-104c-5.5 0-10 4.5-10 10v104c0 5.5 4.5 10 10 10h104c5.5 0 10-4.5 10-10v-104c0-5.5-4.5-10-10-10zm-10 104h-84v-84h84z"></path></svg>