<svg id="Layer_1" enable-background="new 0 0 512 512" height="512" viewBox="0 0 512 512" width="512" xmlns="http://www.w3.org/2000/svg"><g><path d="m222.879 283.647c-14.382 0-26.083 11.685-26.083 26.048s11.701 26.048 26.083 26.048h66.242c14.382 0 26.083-11.685 26.083-26.048s-11.701-26.048-26.083-26.048z"/><path d="m495.174 103.946-55.874 168.708c-4.248 12.828-16.193 21.447-29.722 21.447h-64.577c-6.838-24.403-29.292-42.36-55.881-42.36h-66.242c-26.589 0-49.043 17.957-55.881 42.36h-62.521c-13.379 0-25.281-8.493-29.617-21.132l-57.974-169.023z"/><path d="m469.633 282.673c-8.584 25.919-32.718 43.334-60.055 43.334h-64.781c-7.074 24.037-29.348 41.642-55.676 41.642h-66.242c-26.328 0-48.602-17.606-55.676-41.642h-62.726c-27.033 0-51.081-17.159-59.841-42.699l-44.636-130.133v322.279c0 9.433 7.657 17.079 17.102 17.079h477.795c9.445 0 17.102-7.647 17.102-17.079v-320.706z"/><path d="m174.61 72.035v-20.663h162.78v20.663h31.949v-36.616c0-8.81-7.152-15.953-15.974-15.953h-194.729c-8.822 0-15.974 7.142-15.974 15.953v36.616z"/></g></svg>