<?xml version="1.0" encoding="iso-8859-1"?>
<!-- Generator: Adobe Illustrator 19.0.0, SVG Export Plug-In . SVG Version: 6.00 Build 0)  -->
<svg version="1.1" id="Capa_1" xmlns="http://www.w3.org/2000/svg" xmlns:xlink="http://www.w3.org/1999/xlink" x="0px" y="0px"
	 viewBox="0 0 512 512" style="enable-background:new 0 0 512 512;" xml:space="preserve">
<g>
	<g>
		<path d="M377.08,302.227l130.526,138.156C510.42,434.51,512,427.936,512,421V240.644
			C496.032,247.932,392.247,295.304,377.08,302.227z"/>
	</g>
</g>
<g>
	<g>
		<path d="M485.688,149.344l-223.46-101.99c-3.957-1.806-8.5-1.806-12.457,0L26.306,149.347C10.326,156.649,0,172.716,0,190.28
			v17.386c2.959,1.351,85.514,39.035,256,116.846l256-116.846V190.28C512,172.715,501.674,156.648,485.688,149.344z"/>
	</g>
</g>
<g>
	<g>
		<path d="M0,240.644V421c0,6.936,1.58,13.51,4.395,19.383L134.92,302.227C119.731,295.294,15.913,247.907,0,240.644z"/>
	</g>
</g>
<g>
	<g>
		<path d="M348.243,315.388l-86.014,39.258c-3.956,1.805-8.5,1.806-12.457,0l-86.015-39.258L25.616,461.605
			C31.49,464.42,38.063,466,45,466h422c6.937,0,13.51-1.58,19.384-4.395L348.243,315.388z"/>
	</g>
</g>
<g>
</g>
<g>
</g>
<g>
</g>
<g>
</g>
<g>
</g>
<g>
</g>
<g>
</g>
<g>
</g>
<g>
</g>
<g>
</g>
<g>
</g>
<g>
</g>
<g>
</g>
<g>
</g>
<g>
</g>
</svg>
