<?xml version="1.0" encoding="iso-8859-1"?>
<!-- Generator: Adobe Illustrator 17.1.0, SVG Export Plug-In . SVG Version: 6.00 Build 0)  -->
<!DOCTYPE svg PUBLIC "-//W3C//DTD SVG 1.1//EN" "http://www.w3.org/Graphics/SVG/1.1/DTD/svg11.dtd">
<svg version="1.1" id="Capa_1" xmlns="http://www.w3.org/2000/svg" xmlns:xlink="http://www.w3.org/1999/xlink" x="0px" y="0px"
	 viewBox="0 0 247 247" style="enable-background:new 0 0 247 247;" xml:space="preserve">
<path d="M171.333,48c-4.143,0-7.833-3.357-7.833-7.5V0H41.333C37.19,0,33.5,3.357,33.5,7.5v231c0,4.133,3.51,7.737,7.644,7.75
	L206.311,247c0.008,0,0.015,0,0.015,0c1.993,0,3.731-1.037,5.136-2.438c1.412-1.407,2.039-3.568,2.039-5.562V48H171.333z
	 M171.833,181h-99c-4.143,0-7.5-3.357-7.5-7.5s3.357-7.5,7.5-7.5h99c4.143,0,7.5,3.357,7.5,7.5S175.976,181,171.833,181z
	 M171.833,148h-99c-4.143,0-7.5-3.357-7.5-7.5s3.357-7.5,7.5-7.5h99c4.143,0,7.5,3.357,7.5,7.5S175.976,148,171.833,148z
	 M171.833,115h-99c-4.143,0-7.5-3.357-7.5-7.5s3.357-7.5,7.5-7.5h99c4.143,0,7.5,3.357,7.5,7.5S175.976,115,171.833,115z
	 M171.833,84h-99c-4.143,0-7.5-3.357-7.5-7.5s3.357-7.5,7.5-7.5h99c4.143,0,7.5,3.357,7.5,7.5S175.976,84,171.833,84z M210.767,33
	H178.5V2.383L210.767,33z"/>
<g>
</g>
<g>
</g>
<g>
</g>
<g>
</g>
<g>
</g>
<g>
</g>
<g>
</g>
<g>
</g>
<g>
</g>
<g>
</g>
<g>
</g>
<g>
</g>
<g>
</g>
<g>
</g>
<g>
</g>
</svg>
