<?xml version="1.0" encoding="utf-8"?>
<!-- Generator: Adobe Illustrator 16.0.0, SVG Export Plug-In . SVG Version: 6.00 Build 0)  -->
<!DOCTYPE svg PUBLIC "-//W3C//DTD SVG 1.1//EN" "http://www.w3.org/Graphics/SVG/1.1/DTD/svg11.dtd">
<svg version="1.1" id="Layer_1" xmlns="http://www.w3.org/2000/svg" xmlns:xlink="http://www.w3.org/1999/xlink" x="0px" y="0px"
	 width="255px" height="80px" viewBox="0 0 255 80" enable-background="new 0 0 255 80" xml:space="preserve">
<path fill="#FFFFFF" d="M46,0h168.919L255,41.104l-39.327,38.863H46V0z"/>
<g>
	<g>
		<path fill="#231F20" d="M92.1,34.453l-0.782,2.579h-1.715l2.916-9.099h2.119l2.957,9.099h-1.782l-0.823-2.579H92.1z
			 M94.706,33.197l-0.715-2.241c-0.176-0.553-0.324-1.174-0.459-1.701h-0.027c-0.135,0.526-0.271,1.161-0.432,1.701l-0.702,2.241
			H94.706z"/>
		<path fill="#231F20" d="M98.472,35.492c0.364,0.229,1.08,0.486,1.674,0.486c0.729,0,1.053-0.311,1.053-0.742
			c0-0.446-0.27-0.662-1.08-0.959c-1.283-0.432-1.81-1.134-1.81-1.917c0-1.161,0.959-2.052,2.484-2.052
			c0.729,0,1.364,0.176,1.754,0.392l-0.338,1.161c-0.27-0.162-0.809-0.378-1.389-0.378c-0.595,0-0.918,0.297-0.918,0.702
			c0,0.418,0.311,0.608,1.147,0.918c1.201,0.419,1.742,1.026,1.756,1.998c0,1.202-0.932,2.065-2.673,2.065
			c-0.797,0-1.513-0.189-1.998-0.459L98.472,35.492z"/>
		<path fill="#231F20" d="M103.898,35.492c0.365,0.229,1.08,0.486,1.674,0.486c0.73,0,1.055-0.311,1.055-0.742
			c0-0.446-0.271-0.662-1.08-0.959c-1.283-0.432-1.811-1.134-1.811-1.917c0-1.161,0.959-2.052,2.484-2.052
			c0.729,0,1.363,0.176,1.756,0.392l-0.338,1.161c-0.27-0.162-0.811-0.378-1.391-0.378c-0.594,0-0.918,0.297-0.918,0.702
			c0,0.418,0.311,0.608,1.148,0.918c1.201,0.419,1.74,1.026,1.753,1.998c0,1.202-0.932,2.065-2.671,2.065
			c-0.797,0-1.514-0.189-1.998-0.459L103.898,35.492z"/>
		<path fill="#231F20" d="M112.27,37.18c-1.85,0-3.295-1.27-3.295-3.389c0-2.16,1.418-3.483,3.402-3.483
			c1.957,0,3.268,1.377,3.268,3.375c0,2.417-1.701,3.497-3.36,3.497H112.27z M112.322,35.979c0.945,0,1.607-0.918,1.607-2.255
			c0-1.026-0.459-2.214-1.595-2.214c-1.174,0-1.646,1.147-1.646,2.241c0,1.269,0.635,2.228,1.619,2.228H112.322z"/>
		<path fill="#231F20" d="M121.637,36.828c-0.35,0.162-1.039,0.338-1.861,0.338c-2.053,0-3.389-1.322-3.389-3.361
			c0-1.971,1.35-3.497,3.658-3.497c0.607,0,1.229,0.135,1.605,0.297l-0.297,1.255c-0.271-0.135-0.66-0.256-1.256-0.256
			c-1.269,0-2.023,0.931-2.011,2.133c0,1.351,0.877,2.12,2.011,2.12c0.567,0,0.985-0.122,1.311-0.258L121.637,36.828z"/>
		<path fill="#231F20" d="M123.488,29.512c-0.555,0-0.918-0.405-0.918-0.891c0-0.513,0.377-0.904,0.93-0.904
			c0.568,0,0.918,0.392,0.932,0.904c0,0.486-0.363,0.891-0.932,0.891H123.488z M122.664,37.031v-6.575h1.66v6.575H122.664z"/>
		<path fill="#231F20" d="M131.02,35.451c0,0.595,0.027,1.176,0.107,1.58h-1.498l-0.121-0.729h-0.041
			c-0.391,0.513-1.08,0.877-1.943,0.877c-1.32,0-2.064-0.959-2.064-1.957c0-1.647,1.475-2.498,3.899-2.484V32.63
			c0-0.432-0.176-1.147-1.336-1.147c-0.646,0-1.321,0.202-1.77,0.486l-0.324-1.08c0.486-0.297,1.338-0.581,2.376-0.581
			c2.105,0,2.713,1.336,2.713,2.781V35.451L131.02,35.451z M129.4,33.818c-1.176-0.014-2.295,0.229-2.295,1.229
			c0,0.648,0.418,0.945,0.943,0.945c0.677,0,1.146-0.433,1.312-0.904c0.041-0.122,0.041-0.244,0.041-0.365V33.818z"/>
		<path fill="#231F20" d="M134.396,28.769v1.688h1.578v1.242h-1.578v2.889c0,0.811,0.215,1.215,0.85,1.215
			c0.297,0,0.459-0.014,0.648-0.067l0.024,1.255c-0.244,0.096-0.688,0.176-1.203,0.176c-0.618,0-1.116-0.202-1.43-0.539
			c-0.365-0.379-0.527-0.986-0.527-1.85V31.7h-0.932v-1.242h0.932v-1.229L134.396,28.769z"/>
		<path fill="#231F20" d="M137.852,29.512c-0.555,0-0.918-0.405-0.918-0.891c0-0.513,0.377-0.904,0.93-0.904
			c0.568,0,0.921,0.392,0.935,0.904c0,0.486-0.36,0.891-0.935,0.891H137.852z M137.027,37.031v-6.575h1.66v6.575H137.027z"/>
		<path fill="#231F20" d="M143.156,37.18c-1.85,0-3.293-1.27-3.293-3.389c0-2.16,1.416-3.483,3.4-3.483
			c1.959,0,3.268,1.377,3.268,3.375c0,2.417-1.701,3.497-3.361,3.497H143.156z M143.211,35.979c0.945,0,1.605-0.918,1.605-2.255
			c0-1.026-0.459-2.214-1.592-2.214c-1.179,0-1.648,1.147-1.648,2.241c0,1.269,0.635,2.228,1.621,2.228H143.211z"/>
		<path fill="#231F20" d="M147.691,32.414c0-0.756-0.025-1.39-0.053-1.958h1.44l0.082,0.986h0.041
			c0.297-0.513,1.012-1.134,2.104-1.134c1.146,0,2.336,0.743,2.336,2.822v3.901h-1.662v-3.712c0-0.945-0.351-1.661-1.254-1.661
			c-0.662,0-1.121,0.473-1.297,0.972c-0.056,0.135-0.08,0.337-0.08,0.526v3.875h-1.662v-4.617H147.691z"/>
		<path fill="#231F20" d="M157.992,37.031v-5.333h-0.891v-1.242h0.891v-0.283c0-0.851,0.23-1.701,0.797-2.241
			c0.486-0.459,1.148-0.634,1.715-0.634c0.445,0,0.797,0.081,1.053,0.162l-0.104,1.282c-0.188-0.067-0.406-0.122-0.72-0.122
			c-0.819,0-1.094,0.688-1.094,1.499v0.337h1.445v1.242h-1.432v5.333H157.992z"/>
		<path fill="#231F20" d="M164.635,37.18c-1.85,0-3.293-1.27-3.293-3.389c0-2.16,1.416-3.483,3.4-3.483
			c1.959,0,3.268,1.377,3.268,3.375c0,2.417-1.701,3.497-3.361,3.497H164.635z M164.689,35.979c0.942,0,1.604-0.918,1.604-2.255
			c0-1.026-0.459-2.214-1.592-2.214c-1.178,0-1.646,1.147-1.646,2.241c0,1.269,0.635,2.228,1.619,2.228H164.689z"/>
		<path fill="#231F20" d="M169.17,32.576c0-0.891-0.012-1.539-0.053-2.12h1.43l0.068,1.242h0.041
			c0.324-0.918,1.094-1.391,1.809-1.391c0.162,0,0.256,0.014,0.391,0.041v1.553c-0.146-0.027-0.297-0.041-0.498-0.041
			c-0.78,0-1.338,0.5-1.483,1.255c-0.022,0.148-0.039,0.324-0.039,0.5v3.416h-1.662L169.17,32.576L169.17,32.576z"/>
		<path fill="#231F20" d="M96.798,51.762c-0.392,0.188-1.256,0.404-2.362,0.404c-2.889,0-4.644-1.809-4.644-4.576
			c0-2.997,2.092-4.793,4.873-4.793c1.094,0,1.862,0.217,2.2,0.393l-0.351,1.322c-0.433-0.188-1.04-0.351-1.782-0.351
			c-1.85,0-3.186,1.159-3.186,3.348c0,1.998,1.161,3.267,3.172,3.267c0.661,0,1.363-0.135,1.809-0.32L96.798,51.762z"/>
		<path fill="#231F20" d="M100.606,52.18c-1.85,0-3.294-1.269-3.294-3.389c0-2.16,1.417-3.482,3.401-3.482
			c1.958,0,3.267,1.377,3.267,3.375c0,2.416-1.701,3.496-3.361,3.496H100.606z M100.66,50.979c0.946,0,1.606-0.918,1.606-2.254
			c0-1.024-0.459-2.215-1.592-2.215c-1.175,0-1.647,1.147-1.647,2.241c0,1.269,0.635,2.228,1.62,2.228H100.66z"/>
		<path fill="#231F20" d="M105.141,47.414c0-0.756-0.025-1.391-0.053-1.957h1.418l0.08,0.973h0.041
			c0.311-0.514,0.904-1.121,2.025-1.121c0.863,0,1.539,0.485,1.822,1.215h0.024c0.229-0.361,0.5-0.635,0.797-0.82
			c0.379-0.26,0.797-0.395,1.351-0.395c1.08,0,2.188,0.742,2.188,2.852v3.874h-1.619V48.4c0-1.094-0.379-1.741-1.176-1.741
			c-0.566,0-0.984,0.405-1.16,0.878c-0.055,0.148-0.08,0.363-0.08,0.553v3.942h-1.621v-3.808c0-0.918-0.365-1.565-1.133-1.565
			c-0.621,0-1.041,0.485-1.203,0.932c-0.053,0.177-0.08,0.364-0.08,0.554v3.891h-1.621V47.414L105.141,47.414z"/>
		<path fill="#231F20" d="M116.387,47.645c0-0.865-0.027-1.563-0.055-2.188h1.459l0.08,1.014h0.027
			c0.485-0.744,1.256-1.162,2.254-1.162c1.514,0,2.768,1.297,2.768,3.351c0,2.376-1.498,3.521-2.996,3.521
			c-0.824,0-1.512-0.351-1.85-0.877h-0.027v3.401h-1.66V47.645z M118.047,49.277c0,0.162,0.014,0.311,0.041,0.459
			c0.176,0.675,0.756,1.16,1.471,1.16c1.053,0,1.674-0.877,1.674-2.174c0-1.16-0.565-2.104-1.633-2.104
			c-0.688,0-1.322,0.499-1.498,1.229c-0.026,0.135-0.055,0.28-0.055,0.418V49.277z"/>
		<path fill="#231F20" d="M129.969,50.061c0,0.782,0.025,1.434,0.053,1.974h-1.44l-0.082-0.985h-0.041
			c-0.283,0.459-0.934,1.137-2.119,1.137c-1.188,0-2.281-0.719-2.281-2.863v-3.859h1.66v3.577c0,1.094,0.354,1.796,1.229,1.796
			c0.677,0,1.106-0.459,1.271-0.893c0.068-0.135,0.095-0.322,0.095-0.514v-3.97h1.662v4.604h-0.004v-0.004H129.969z"/>
		<path fill="#231F20" d="M133.465,43.77v1.688h1.578V46.7h-1.578v2.889c0,0.81,0.215,1.216,0.85,1.216
			c0.297,0,0.459-0.015,0.648-0.068l0.027,1.259c-0.244,0.094-0.689,0.175-1.203,0.175c-0.621,0-1.119-0.202-1.43-0.54
			c-0.365-0.378-0.527-0.983-0.527-1.853v-3.074h-0.932V45.46h0.932V44.23L133.465,43.77z"/>
		<path fill="#231F20" d="M136.92,44.512c-0.553,0-0.918-0.404-0.918-0.891c0-0.514,0.379-0.905,0.932-0.905
			c0.566,0,0.918,0.392,0.935,0.905c0,0.484-0.365,0.891-0.935,0.891H136.92z M136.096,52.031v-6.574h1.662v6.574H136.096z"/>
		<path fill="#231F20" d="M139.35,47.414c0-0.756-0.024-1.391-0.055-1.957h1.445l0.08,0.984h0.041
			c0.297-0.512,1.012-1.133,2.104-1.133c1.148,0,2.338,0.739,2.338,2.818v3.898h-1.66v-3.713c0-0.941-0.354-1.658-1.256-1.658
			c-0.662,0-1.121,0.474-1.297,0.973c-0.055,0.139-0.082,0.338-0.082,0.525v3.873h-1.658V47.414L139.35,47.414z"/>
		<path fill="#231F20" d="M152.822,51.072c0,1.378-0.283,2.363-0.973,2.984c-0.677,0.604-1.636,0.795-2.537,0.795
			c-0.838,0-1.729-0.188-2.295-0.525l0.362-1.256c0.418,0.242,1.119,0.5,1.916,0.5c1.08,0,1.894-0.567,1.894-1.984V51.02h-0.027
			c-0.379,0.58-1.039,0.975-1.918,0.975c-1.633,0-2.793-1.354-2.793-3.217c0-2.156,1.404-3.469,2.982-3.469
			c1.014,0,1.594,0.485,1.901,1.025h0.026l0.064-0.877h1.445c-0.027,0.445-0.055,0.984-0.055,1.891v3.727L152.822,51.072
			L152.822,51.072z M151.162,48.089c0-0.161-0.014-0.312-0.055-0.444c-0.176-0.605-0.646-1.064-1.353-1.064
			c-0.932,0-1.616,0.812-1.616,2.146c0,1.121,0.563,2.023,1.604,2.023c0.619,0,1.16-0.404,1.35-1.014
			c0.057-0.161,0.068-0.394,0.068-0.582L151.162,48.089L151.162,48.089z"/>
		<path fill="#231F20" d="M164.742,48.318c-0.053-1.174-0.121-2.578-0.107-3.82h-0.041c-0.297,1.107-0.674,2.336-1.08,3.482
			l-1.336,3.939h-1.27l-1.215-3.888c-0.353-1.161-0.674-2.403-0.918-3.537h-0.027c-0.039,1.188-0.094,2.633-0.16,3.875l-0.203,3.655
			h-1.553l0.607-9.098h2.188l1.188,3.657c0.324,1.065,0.607,2.146,0.838,3.159h0.039c0.244-0.984,0.558-2.105,0.904-3.174
			l1.256-3.646h2.16l0.527,9.101h-1.621L164.742,48.318z"/>
		<path fill="#231F20" d="M173.113,50.452c0,0.594,0.025,1.174,0.107,1.579h-1.498l-0.121-0.729h-0.041
			c-0.396,0.513-1.08,0.878-1.945,0.878c-1.322,0-2.064-0.959-2.064-1.957c0-1.646,1.471-2.498,3.9-2.484V47.63
			c0-0.432-0.174-1.147-1.336-1.147c-0.648,0-1.322,0.203-1.768,0.486l-0.324-1.08c0.483-0.297,1.336-0.58,2.375-0.58
			c2.104,0,2.715,1.336,2.715,2.78V50.452L173.113,50.452z M171.492,48.818c-1.174-0.014-2.295,0.229-2.295,1.229
			c0,0.646,0.418,0.945,0.945,0.945c0.676,0,1.146-0.434,1.309-0.905c0.041-0.121,0.041-0.241,0.041-0.364V48.818L171.492,48.818z"
			/>
		<path fill="#231F20" d="M179.498,51.829c-0.352,0.162-1.039,0.337-1.863,0.337c-2.053,0-3.389-1.323-3.389-3.361
			c0-1.971,1.35-3.496,3.658-3.496c0.607,0,1.229,0.135,1.607,0.297l-0.3,1.256c-0.271-0.135-0.662-0.256-1.256-0.256
			c-1.271,0-2.022,0.934-2.015,2.135c0,1.35,0.879,2.117,2.015,2.117c0.563,0,0.983-0.121,1.312-0.256L179.498,51.829z"/>
		<path fill="#231F20" d="M180.523,42.434h1.662v3.914h0.022c0.203-0.311,0.483-0.564,0.824-0.742
			c0.338-0.188,0.729-0.297,1.146-0.297c1.119,0,2.295,0.742,2.295,2.852v3.874h-1.662v-3.699c0-0.942-0.35-1.674-1.268-1.674
			c-0.648,0-1.107,0.432-1.297,0.932c-0.053,0.146-0.066,0.324-0.066,0.499v3.942h-1.662v-9.601H180.523z"/>
		<path fill="#231F20" d="M188.867,44.512c-0.553,0-0.918-0.404-0.918-0.891c0-0.514,0.379-0.905,0.932-0.905
			c0.566,0,0.918,0.392,0.932,0.905c0,0.484-0.362,0.891-0.932,0.891H188.867z M188.043,52.031v-6.574h1.662v6.574H188.043z"/>
		<path fill="#231F20" d="M191.297,47.414c0-0.756-0.027-1.391-0.055-1.957h1.445l0.08,0.984h0.041
			c0.297-0.512,1.012-1.133,2.104-1.133c1.146,0,2.336,0.739,2.336,2.818v3.898h-1.66v-3.713c0-0.941-0.354-1.658-1.256-1.658
			c-0.662,0-1.121,0.474-1.295,0.973c-0.057,0.139-0.082,0.338-0.082,0.525v3.873h-1.66L191.297,47.414L191.297,47.414z"/>
		<path fill="#231F20" d="M199.99,49.21c0.041,1.188,0.973,1.701,2.025,1.701c0.77,0,1.311-0.122,1.819-0.298l0.244,1.135
			c-0.565,0.243-1.354,0.418-2.295,0.418c-2.138,0-3.392-1.311-3.392-3.32c0-1.822,1.105-3.537,3.213-3.537
			c2.136,0,2.834,1.756,2.834,3.199c0,0.311-0.024,0.555-0.053,0.702H199.99z M202.879,48.049c0.014-0.607-0.256-1.605-1.363-1.605
			c-1.022,0-1.457,0.934-1.522,1.605H202.879z"/>
		<path fill="#231F20" d="M205.58,47.576c0-0.891-0.014-1.539-0.055-2.119h1.432l0.068,1.242h0.039
			c0.324-0.92,1.094-1.391,1.809-1.391c0.162,0,0.258,0.012,0.393,0.039V46.9c-0.146-0.026-0.297-0.041-0.5-0.041
			c-0.783,0-1.336,0.5-1.481,1.257c-0.027,0.147-0.041,0.323-0.041,0.5v3.415h-1.66L205.58,47.576L205.58,47.576z"/>
		<path fill="#231F20" d="M211.533,45.457l1.174,3.523c0.137,0.401,0.285,0.901,0.379,1.269h0.041
			c0.094-0.364,0.215-0.864,0.35-1.282l1.027-3.51h1.768l-1.646,4.48c-0.903,2.457-1.512,3.552-2.28,4.227
			c-0.662,0.566-1.337,0.783-1.742,0.837l-0.377-1.392c0.282-0.066,0.621-0.215,0.957-0.459c0.312-0.201,0.688-0.594,0.918-1.039
			c0.057-0.12,0.098-0.215,0.098-0.297c0-0.066-0.016-0.162-0.082-0.323l-2.416-6.034H211.533z"/>
	</g>
	<g>
		
			<linearGradient id="SVGID_1_" gradientUnits="userSpaceOnUse" x1="1311.9697" y1="395.1787" x2="1362.8817" y2="344.2667" gradientTransform="matrix(0.7071 0.7071 0.7071 -0.7071 -1161.1237 -644.264)">
			<stop  offset="0" style="stop-color:#66B9E2"/>
			<stop  offset="0.1343" style="stop-color:#60B7E1"/>
			<stop  offset="0.31" style="stop-color:#50B0DE"/>
			<stop  offset="0.5087" style="stop-color:#35A4D9"/>
			<stop  offset="0.7228" style="stop-color:#0F95D2"/>
			<stop  offset="0.8" style="stop-color:#008ECF"/>
		</linearGradient>
		<polygon fill="url(#SVGID_1_)" points="46,76 10,40 46,4 82,40 		"/>
		<circle fill="#FFFFFE" cx="46" cy="40" r="22.072"/>
		
			<linearGradient id="SVGID_2_" gradientUnits="userSpaceOnUse" x1="934" y1="-775.8647" x2="934" y2="-734.782" gradientTransform="matrix(1 0 0 -1 -888 -716)">
			<stop  offset="0" style="stop-color:#76BFE4"/>
			<stop  offset="0.1226" style="stop-color:#70BDE3"/>
			<stop  offset="0.283" style="stop-color:#60B6E0"/>
			<stop  offset="0.4644" style="stop-color:#45ABDB"/>
			<stop  offset="0.6598" style="stop-color:#1F9BD5"/>
			<stop  offset="0.8" style="stop-color:#008ECF"/>
		</linearGradient>
		<circle fill="url(#SVGID_2_)" cx="46" cy="40" r="19.865"/>
		<g>
			<g>
				<path fill="#FFFFFE" d="M34.434,43.867c-0.203,0.17-0.387,0.322-0.547,0.457c-0.162,0.139-0.379,0.275-0.65,0.41
					c-0.266,0.129-0.525,0.229-0.777,0.293c-0.252,0.062-0.604,0.1-1.057,0.1c-0.844,0-1.545-0.283-2.102-0.852
					c-0.559-0.566-0.836-1.281-0.836-2.146c0-0.713,0.141-1.281,0.424-1.721c0.283-0.438,0.691-0.783,1.223-1.039
					c0.539-0.26,1.18-0.441,1.928-0.545c0.748-0.102,1.551-0.182,2.412-0.238v-0.051c0-0.527-0.195-0.891-0.582-1.092
					c-0.389-0.203-0.969-0.303-1.746-0.303c-0.35,0-0.76,0.064-1.23,0.193c-0.469,0.129-0.928,0.293-1.375,0.492h-0.254V35.51
					c0.295-0.086,0.771-0.186,1.432-0.303c0.658-0.117,1.322-0.176,1.992-0.176c1.648,0,2.85,0.275,3.602,0.824
					c0.752,0.547,1.129,1.385,1.129,2.51v6.514h-2.984v-1.012H34.434z M34.434,42.377v-1.982c-0.502,0.051-0.906,0.096-1.215,0.13
					c-0.311,0.037-0.615,0.107-0.912,0.218c-0.26,0.09-0.461,0.228-0.605,0.411c-0.143,0.183-0.215,0.429-0.215,0.729
					c0,0.447,0.121,0.752,0.359,0.922c0.238,0.166,0.592,0.246,1.061,0.246c0.258,0,0.521-0.059,0.793-0.176
					C33.969,42.76,34.213,42.59,34.434,42.377z"/>
				<path fill="#FFFFFE" d="M43.967,45.127c-0.791,0-1.516-0.1-2.172-0.299c-0.656-0.195-1.227-0.504-1.709-0.92
					c-0.479-0.412-0.852-0.932-1.119-1.559c-0.267-0.627-0.4-1.365-0.4-2.22c0-0.914,0.145-1.691,0.436-2.334
					c0.289-0.639,0.682-1.166,1.178-1.582c0.477-0.396,1.037-0.691,1.684-0.879c0.646-0.189,1.318-0.287,2.018-0.287
					c0.529,0,1.059,0.062,1.588,0.186c0.529,0.119,1.061,0.316,1.596,0.582v2.561H46.68c-0.119-0.113-0.266-0.238-0.439-0.375
					c-0.173-0.137-0.363-0.264-0.568-0.377c-0.215-0.121-0.461-0.221-0.732-0.303c-0.273-0.082-0.578-0.123-0.914-0.123
					c-0.764,0-1.354,0.264-1.771,0.795c-0.418,0.529-0.627,1.24-0.627,2.137c0,0.957,0.223,1.674,0.67,2.143
					c0.447,0.47,1.039,0.707,1.779,0.707c0.375,0,0.705-0.045,0.99-0.129c0.285-0.082,0.529-0.188,0.734-0.305
					c0.199-0.117,0.369-0.238,0.512-0.367c0.143-0.125,0.266-0.24,0.367-0.342h0.385v2.551c-0.172,0.072-0.369,0.156-0.594,0.256
					c-0.225,0.094-0.453,0.172-0.686,0.234c-0.291,0.08-0.562,0.143-0.816,0.184C44.717,45.104,44.381,45.127,43.967,45.127z"/>
				<path fill="#FFFFFE" d="M60.076,44.881v-4.783c0-0.471-0.01-0.869-0.025-1.193c-0.018-0.322-0.068-0.588-0.154-0.793
					c-0.086-0.203-0.219-0.354-0.398-0.447c-0.179-0.093-0.432-0.141-0.758-0.141c-0.227,0-0.453,0.051-0.674,0.146
					c-0.223,0.102-0.467,0.244-0.729,0.426v6.785h-2.984v-4.783c0-0.465-0.01-0.861-0.029-1.189
					c-0.021-0.326-0.072-0.592-0.158-0.797c-0.086-0.203-0.219-0.354-0.398-0.447c-0.179-0.093-0.43-0.141-0.748-0.141
					c-0.244,0-0.484,0.057-0.719,0.17c-0.234,0.115-0.463,0.248-0.684,0.402v6.785h-2.984v-9.562h2.984v1.055
					c0.486-0.416,0.947-0.738,1.379-0.971c0.432-0.234,0.916-0.352,1.455-0.352c0.586,0,1.1,0.141,1.541,0.418
					c0.443,0.279,0.781,0.693,1.014,1.244c0.574-0.533,1.115-0.943,1.623-1.23c0.508-0.287,1.023-0.432,1.545-0.432
					c0.443,0,0.84,0.072,1.191,0.215c0.354,0.143,0.65,0.354,0.895,0.639c0.268,0.307,0.467,0.67,0.6,1.094
					c0.135,0.424,0.201,0.977,0.201,1.656v6.227L60.076,44.881L60.076,44.881z"/>
			</g>
		</g>
	</g>
</g>
</svg>
